<?xml version="1.0" encoding="UTF-8"?>
<svg xmlns="http://www.w3.org/2000/svg" width="95" height="62" viewBox="0 0 95 62" fill="none">
  <g clip-path="url(#clip0_3511_6745)">
    <path d="M67.7852 7.14304V54.2934H69.1715H69.5045H69.9424V2.41602L67.7852 7.14304Z" fill="#E50012"></path>
    <path d="M61.3568 0L32.2227 62H40.421L69.9425 0H61.3568Z" fill="#E50012"></path>
    <path d="M46.0038 28.0352H20.3047V54.2863H33.6719L36.611 48.0369H27.3593V44.0402H38.4859L41.15 38.3721H27.3593V33.7904H43.2855L46.0038 28.0352Z" fill="white"></path>
    <path d="M7.6265 48.0042V28.0352H0V48.0042V54.2863L18.6952 54.2936V48.0042H7.6265Z" fill="white"></path>
    <path d="M62.8688 43.9534V28.5479L55.5391 43.9534H62.8688Z" fill="white"></path>
    <path d="M50.6172 54.2867H62.8659V47.9355H53.6395L50.6172 54.2867Z" fill="white"></path>
    <path d="M94.9896 35.8143C95.1742 30.5496 91.4135 27.9735 86.4112 28.0353H72.2188V44.0221H79.3095V34.212H84.8692C86.1072 34.1066 87.6527 34.7679 87.6527 36.5192V45.4174C87.6998 47.0996 86.7768 47.8808 85.0611 47.8917H72.2188V54.2937H87.2618C87.2618 54.2937 87.4066 54.2937 87.6527 54.2319C90.6715 54.2138 95.2539 51.8157 94.9896 46.5582V35.8143Z" fill="white"></path>
  </g>
  <defs>
    <clipPath id="clip0_3511_6745">
      <rect width="95" height="62" fill="white"></rect>
    </clipPath>
  </defs>
</svg>
